<svg width="280" height="183" viewBox="0 0 280 183" fill="none" xmlns="http://www.w3.org/2000/svg">
<path d="M33.4025 174.675C29.0161 174.675 24.6726 173.811 20.62 172.133C16.5674 170.454 12.8852 167.994 9.78349 164.892C6.6818 161.79 4.2214 158.108 2.54278 154.056C0.864152 150.003 0.000187039 145.66 0.000187039 141.273V124.572C0.000187039 115.713 3.51934 107.217 9.78349 100.953C16.0476 94.689 24.5437 91.1699 33.4025 91.1699L33.4025 174.675Z" fill="#525252"/>
<path d="M246.598 91.1686C250.984 91.1686 255.328 92.0325 259.38 93.7112C263.433 95.3898 267.115 97.8501 270.217 100.952C273.318 104.053 275.779 107.736 277.457 111.788C279.136 115.841 280 120.184 280 124.571V141.272C280 145.658 279.136 150.002 277.457 154.054C275.779 158.107 273.318 161.789 270.217 164.891C267.115 167.992 263.433 170.453 259.38 172.131C255.328 173.81 250.984 174.674 246.598 174.674L246.598 91.1686Z" fill="#525252"/>
<path d="M267.366 127.193H262.066C262.066 59.9808 207.386 5.29969 140.173 5.29969C72.9614 5.29969 18.2802 59.9808 18.2802 127.193H12.9805C12.9805 57.0584 70.039 0 140.173 0C210.308 0 267.366 57.0584 267.366 127.193Z" fill="#525252"/>
<path d="M39.7431 147.497C39.5459 147.497 39.3568 147.418 39.2174 147.279C39.078 147.14 38.9996 146.95 38.9996 146.753V120.731C38.9996 120.534 39.078 120.345 39.2174 120.205C39.3568 120.066 39.5459 119.988 39.7431 119.988C39.9403 119.988 40.1294 120.066 40.2688 120.205C40.4083 120.345 40.4866 120.534 40.4866 120.731V146.753C40.4866 146.95 40.4083 147.14 40.2688 147.279C40.1294 147.418 39.9403 147.497 39.7431 147.497Z" fill="#FFB660"/>
<path d="M44.9506 151.583C44.7534 151.583 44.5643 151.505 44.4248 151.365C44.2854 151.226 44.2071 151.037 44.2071 150.84V116.639C44.2071 116.442 44.2854 116.253 44.4248 116.114C44.5643 115.974 44.7534 115.896 44.9506 115.896C45.1478 115.896 45.3369 115.974 45.4763 116.114C45.6157 116.253 45.6941 116.442 45.6941 116.639V150.84C45.6941 151.037 45.6157 151.226 45.4763 151.365C45.3369 151.505 45.1478 151.583 44.9506 151.583Z" fill="#FFB660"/>
<path d="M50.1524 154.182C49.9552 154.182 49.7661 154.103 49.6267 153.964C49.4873 153.825 49.4089 153.636 49.4089 153.438V114.034C49.4089 113.836 49.4873 113.647 49.6267 113.508C49.7661 113.368 49.9552 113.29 50.1524 113.29C50.3496 113.29 50.5387 113.368 50.6781 113.508C50.8176 113.647 50.8959 113.836 50.8959 114.034V153.438C50.8959 153.636 50.8176 153.825 50.6781 153.964C50.5387 154.103 50.3496 154.182 50.1524 154.182Z" fill="#FFB660"/>
<path d="M55.3588 160.875C55.1617 160.875 54.9725 160.796 54.8331 160.657C54.6937 160.517 54.6154 160.328 54.6154 160.131V107.344C54.6154 107.146 54.6937 106.957 54.8331 106.818C54.9725 106.678 55.1617 106.6 55.3588 106.6C55.556 106.6 55.7451 106.678 55.8846 106.818C56.024 106.957 56.1023 107.146 56.1023 107.344V160.131C56.1023 160.328 56.024 160.517 55.8846 160.657C55.7451 160.796 55.556 160.875 55.3588 160.875Z" fill="#FFB660"/>
<path d="M60.5611 170.921C60.3639 170.921 60.1748 170.843 60.0354 170.704C59.8959 170.564 59.8176 170.375 59.8176 170.178V97.3164C59.8176 97.1192 59.8959 96.9301 60.0354 96.7906C60.1748 96.6512 60.3639 96.5729 60.5611 96.5729C60.7583 96.5729 60.9474 96.6512 61.0868 96.7906C61.2263 96.9301 61.3046 97.1192 61.3046 97.3164V170.178C61.3046 170.375 61.2263 170.564 61.0868 170.704C60.9474 170.843 60.7583 170.921 60.5611 170.921Z" fill="#FFB660"/>
<path d="M65.768 160.875C65.5708 160.875 65.3817 160.796 65.2423 160.657C65.1029 160.517 65.0245 160.328 65.0245 160.131V107.344C65.0245 107.146 65.1029 106.957 65.2423 106.818C65.3817 106.678 65.5708 106.6 65.768 106.6C65.9652 106.6 66.1543 106.678 66.2937 106.818C66.4332 106.957 66.5115 107.146 66.5115 107.344V160.131C66.5115 160.328 66.4332 160.517 66.2937 160.657C66.1543 160.796 65.9652 160.875 65.768 160.875Z" fill="#FFB660"/>
<path d="M70.9688 165.71C70.7716 165.71 70.5825 165.631 70.443 165.492C70.3036 165.353 70.2253 165.163 70.2253 164.966V102.513C70.2253 102.316 70.3036 102.127 70.443 101.988C70.5825 101.848 70.7716 101.77 70.9688 101.77C71.166 101.77 71.3551 101.848 71.4945 101.988C71.6339 102.127 71.7123 102.316 71.7123 102.513V164.966C71.7123 165.163 71.6339 165.353 71.4945 165.492C71.3551 165.631 71.166 165.71 70.9688 165.71Z" fill="#FFB660"/>
<path d="M76.178 153.078C75.9808 153.078 75.7917 152.999 75.6523 152.86C75.5128 152.721 75.4345 152.532 75.4345 152.334V115.16C75.4345 114.963 75.5128 114.774 75.6523 114.634C75.7917 114.495 75.9808 114.416 76.178 114.416C76.3752 114.416 76.5643 114.495 76.7037 114.634C76.8431 114.774 76.9215 114.963 76.9215 115.16V152.334C76.9215 152.532 76.8431 152.721 76.7037 152.86C76.5643 152.999 76.3752 153.078 76.178 153.078Z" fill="#FFB660"/>
<path d="M81.3795 156.052C81.1823 156.052 80.9932 155.973 80.8537 155.834C80.7143 155.694 80.636 155.505 80.636 155.308V112.186C80.636 111.989 80.7143 111.8 80.8537 111.66C80.9932 111.521 81.1823 111.443 81.3795 111.443C81.5767 111.443 81.7658 111.521 81.9052 111.66C82.0446 111.8 82.123 111.989 82.123 112.186V155.308C82.123 155.505 82.0446 155.694 81.9052 155.834C81.7658 155.973 81.5767 156.052 81.3795 156.052Z" fill="#FFB660"/>
<path d="M86.5863 147.497C86.3891 147.497 86.2 147.418 86.0605 147.279C85.9211 147.14 85.8428 146.95 85.8428 146.753V120.731C85.8428 120.534 85.9211 120.345 86.0605 120.205C86.2 120.066 86.3891 119.988 86.5863 119.988C86.7834 119.988 86.9725 120.066 87.112 120.205C87.2514 120.345 87.3297 120.534 87.3297 120.731V146.753C87.3297 146.95 87.2514 147.14 87.112 147.279C86.9725 147.418 86.7834 147.497 86.5863 147.497Z" fill="#FFB660"/>
<path d="M91.0441 147.497C90.847 147.497 90.6578 147.418 90.5184 147.279C90.379 147.14 90.3007 146.95 90.3007 146.753V120.731C90.3007 120.534 90.379 120.345 90.5184 120.205C90.6578 120.066 90.847 119.988 91.0441 119.988C91.2413 119.988 91.4304 120.066 91.5699 120.205C91.7093 120.345 91.7876 120.534 91.7876 120.731V146.753C91.7876 146.95 91.7093 147.14 91.5699 147.279C91.4304 147.418 91.2413 147.497 91.0441 147.497Z" fill="#FFB660"/>
<path d="M96.2504 151.583C96.0533 151.583 95.8641 151.505 95.7247 151.365C95.5853 151.226 95.507 151.037 95.507 150.84V116.639C95.507 116.442 95.5853 116.253 95.7247 116.114C95.8641 115.974 96.0533 115.896 96.2504 115.896C96.4476 115.896 96.6367 115.974 96.7762 116.114C96.9156 116.253 96.9939 116.442 96.9939 116.639V150.84C96.9939 151.037 96.9156 151.226 96.7762 151.365C96.6367 151.505 96.4476 151.583 96.2504 151.583Z" fill="#FFB660"/>
<path d="M101.454 154.182C101.257 154.182 101.068 154.103 100.929 153.964C100.789 153.825 100.711 153.636 100.711 153.438V114.034C100.711 113.836 100.789 113.647 100.929 113.508C101.068 113.368 101.257 113.29 101.454 113.29C101.652 113.29 101.841 113.368 101.98 113.508C102.12 113.647 102.198 113.836 102.198 114.034V153.438C102.198 153.636 102.12 153.825 101.98 153.964C101.841 154.103 101.652 154.182 101.454 154.182Z" fill="#FFB660"/>
<path d="M106.659 160.875C106.462 160.875 106.273 160.796 106.133 160.657C105.994 160.517 105.916 160.328 105.916 160.131V107.344C105.916 107.146 105.994 106.957 106.133 106.818C106.273 106.678 106.462 106.6 106.659 106.6C106.856 106.6 107.045 106.678 107.185 106.818C107.324 106.957 107.403 107.146 107.403 107.344V160.131C107.403 160.328 107.324 160.517 107.185 160.657C107.045 160.796 106.856 160.875 106.659 160.875Z" fill="#FFB660"/>
<path d="M111.863 182.814C111.665 182.814 111.476 182.736 111.337 182.596C111.197 182.457 111.119 182.268 111.119 182.07V85.4172C111.119 85.22 111.197 85.0309 111.337 84.8915C111.476 84.752 111.665 84.6737 111.863 84.6737C112.06 84.6737 112.249 84.752 112.388 84.8915C112.528 85.0309 112.606 85.22 112.606 85.4172V182.07C112.606 182.268 112.528 182.457 112.388 182.596C112.249 182.736 112.06 182.814 111.863 182.814Z" fill="#FFB660"/>
<path d="M117.068 160.875C116.871 160.875 116.682 160.796 116.542 160.657C116.403 160.517 116.325 160.328 116.325 160.131V107.344C116.325 107.146 116.403 106.957 116.542 106.818C116.682 106.678 116.871 106.6 117.068 106.6C117.265 106.6 117.454 106.678 117.594 106.818C117.733 106.957 117.812 107.146 117.812 107.344V160.131C117.812 160.328 117.733 160.517 117.594 160.657C117.454 160.796 117.265 160.875 117.068 160.875Z" fill="#FFB660"/>
<path d="M122.271 165.71C122.074 165.71 121.885 165.631 121.746 165.492C121.606 165.353 121.528 165.163 121.528 164.966V102.513C121.528 102.316 121.606 102.127 121.746 101.988C121.885 101.848 122.074 101.77 122.271 101.77C122.469 101.77 122.658 101.848 122.797 101.988C122.937 102.127 123.015 102.316 123.015 102.513V164.966C123.015 165.163 122.937 165.353 122.797 165.492C122.658 165.631 122.469 165.71 122.271 165.71Z" fill="#FFB660"/>
<path d="M127.477 153.078C127.28 153.078 127.091 152.999 126.951 152.86C126.812 152.721 126.734 152.532 126.734 152.334V115.16C126.734 114.963 126.812 114.774 126.951 114.634C127.091 114.495 127.28 114.416 127.477 114.416C127.674 114.416 127.863 114.495 128.003 114.634C128.142 114.774 128.22 114.963 128.22 115.16V152.334C128.22 152.532 128.142 152.721 128.003 152.86C127.863 152.999 127.674 153.078 127.477 153.078Z" fill="#FFB660"/>
<path d="M132.679 156.052C132.482 156.052 132.293 155.973 132.154 155.834C132.014 155.694 131.936 155.505 131.936 155.308V112.186C131.936 111.989 132.014 111.8 132.154 111.66C132.293 111.521 132.482 111.443 132.679 111.443C132.877 111.443 133.066 111.521 133.205 111.66C133.344 111.8 133.423 111.989 133.423 112.186V155.308C133.423 155.505 133.344 155.694 133.205 155.834C133.066 155.973 132.877 156.052 132.679 156.052Z" fill="#FFB660"/>
<path d="M137.886 147.497C137.689 147.497 137.5 147.418 137.361 147.279C137.221 147.14 137.143 146.95 137.143 146.753V120.731C137.143 120.534 137.221 120.345 137.361 120.205C137.5 120.066 137.689 119.988 137.886 119.988C138.084 119.988 138.273 120.066 138.412 120.205C138.552 120.345 138.63 120.534 138.63 120.731V146.753C138.63 146.95 138.552 147.14 138.412 147.279C138.273 147.418 138.084 147.497 137.886 147.497Z" fill="#FFB660"/>
<path d="M142.347 147.497C142.15 147.497 141.961 147.418 141.821 147.279C141.682 147.14 141.604 146.95 141.604 146.753V120.731C141.604 120.534 141.682 120.345 141.821 120.205C141.961 120.066 142.15 119.988 142.347 119.988C142.544 119.988 142.733 120.066 142.873 120.205C143.012 120.345 143.091 120.534 143.091 120.731V146.753C143.091 146.95 143.012 147.14 142.873 147.279C142.733 147.418 142.544 147.497 142.347 147.497Z" fill="#FFB660"/>
<path d="M147.55 151.583C147.352 151.583 147.163 151.505 147.024 151.365C146.884 151.226 146.806 151.037 146.806 150.84V116.639C146.806 116.442 146.884 116.253 147.024 116.114C147.163 115.974 147.352 115.896 147.55 115.896C147.747 115.896 147.936 115.974 148.075 116.114C148.215 116.253 148.293 116.442 148.293 116.639V150.84C148.293 151.037 148.215 151.226 148.075 151.365C147.936 151.505 147.747 151.583 147.55 151.583Z" fill="#FFB660"/>
<path d="M152.755 154.182C152.558 154.182 152.369 154.104 152.229 153.964C152.09 153.825 152.011 153.636 152.011 153.439V114.034C152.011 113.837 152.09 113.647 152.229 113.508C152.369 113.369 152.558 113.29 152.755 113.29C152.952 113.29 153.141 113.369 153.281 113.508C153.42 113.647 153.498 113.837 153.498 114.034V153.439C153.498 153.636 153.42 153.825 153.281 153.964C153.141 154.104 152.952 154.182 152.755 154.182Z" fill="#FFB660"/>
<path d="M157.959 160.875C157.762 160.875 157.573 160.796 157.433 160.657C157.294 160.517 157.216 160.328 157.216 160.131V107.344C157.216 107.146 157.294 106.957 157.433 106.818C157.573 106.678 157.762 106.6 157.959 106.6C158.156 106.6 158.345 106.678 158.485 106.818C158.624 106.957 158.702 107.146 158.702 107.344V160.131C158.702 160.328 158.624 160.517 158.485 160.657C158.345 160.796 158.156 160.875 157.959 160.875Z" fill="#FFB660"/>
<path d="M163.164 170.922C162.966 170.922 162.777 170.844 162.638 170.704C162.498 170.565 162.42 170.376 162.42 170.179V97.3172C162.42 97.12 162.498 96.9309 162.638 96.7915C162.777 96.652 162.966 96.5737 163.164 96.5737C163.361 96.5737 163.55 96.652 163.689 96.7915C163.829 96.9309 163.907 97.12 163.907 97.3172V170.179C163.907 170.376 163.829 170.565 163.689 170.704C163.55 170.844 163.361 170.922 163.164 170.922Z" fill="#FFB660"/>
<path d="M168.368 160.875C168.171 160.875 167.982 160.796 167.842 160.657C167.703 160.517 167.624 160.328 167.624 160.131V107.344C167.624 107.146 167.703 106.957 167.842 106.818C167.982 106.678 168.171 106.6 168.368 106.6C168.565 106.6 168.754 106.678 168.894 106.818C169.033 106.957 169.111 107.146 169.111 107.344V160.131C169.111 160.328 169.033 160.517 168.894 160.657C168.754 160.796 168.565 160.875 168.368 160.875Z" fill="#FFB660"/>
<path d="M173.571 165.71C173.374 165.71 173.185 165.631 173.046 165.492C172.906 165.353 172.828 165.163 172.828 164.966V102.513C172.828 102.316 172.906 102.127 173.046 101.988C173.185 101.848 173.374 101.77 173.571 101.77C173.768 101.77 173.958 101.848 174.097 101.988C174.236 102.127 174.315 102.316 174.315 102.513V164.966C174.315 165.163 174.236 165.353 174.097 165.492C173.958 165.631 173.768 165.71 173.571 165.71Z" fill="#FFB660"/>
<path d="M178.778 153.078C178.58 153.078 178.391 152.999 178.252 152.86C178.112 152.721 178.034 152.532 178.034 152.334V115.16C178.034 114.963 178.112 114.774 178.252 114.634C178.391 114.495 178.58 114.416 178.778 114.416C178.975 114.416 179.164 114.495 179.303 114.634C179.443 114.774 179.521 114.963 179.521 115.16V152.334C179.521 152.532 179.443 152.721 179.303 152.86C179.164 152.999 178.975 153.078 178.778 153.078Z" fill="#FFB660"/>
<path d="M183.982 156.052C183.785 156.052 183.596 155.973 183.456 155.834C183.317 155.695 183.238 155.506 183.238 155.308V112.186C183.238 111.989 183.317 111.8 183.456 111.66C183.596 111.521 183.785 111.443 183.982 111.443C184.179 111.443 184.368 111.521 184.508 111.66C184.647 111.8 184.725 111.989 184.725 112.186V155.308C184.725 155.506 184.647 155.695 184.508 155.834C184.368 155.973 184.179 156.052 183.982 156.052Z" fill="#FFB660"/>
<path d="M189.186 147.497C188.989 147.497 188.8 147.418 188.66 147.279C188.521 147.14 188.443 146.95 188.443 146.753V120.731C188.443 120.534 188.521 120.345 188.66 120.205C188.8 120.066 188.989 119.988 189.186 119.988C189.383 119.988 189.572 120.066 189.712 120.205C189.851 120.345 189.929 120.534 189.929 120.731V146.753C189.929 146.95 189.851 147.14 189.712 147.279C189.572 147.418 189.383 147.497 189.186 147.497Z" fill="#FFB660"/>
<path d="M193.648 147.497C193.45 147.497 193.261 147.418 193.122 147.279C192.982 147.14 192.904 146.95 192.904 146.753V120.731C192.904 120.534 192.982 120.345 193.122 120.205C193.261 120.066 193.45 119.988 193.648 119.988C193.845 119.988 194.034 120.066 194.173 120.205C194.313 120.345 194.391 120.534 194.391 120.731V146.753C194.391 146.95 194.313 147.14 194.173 147.279C194.034 147.418 193.845 147.497 193.648 147.497Z" fill="#FFB660"/>
<path d="M198.85 151.583C198.653 151.583 198.464 151.505 198.325 151.365C198.185 151.226 198.107 151.037 198.107 150.84V116.639C198.107 116.442 198.185 116.253 198.325 116.114C198.464 115.974 198.653 115.896 198.85 115.896C199.048 115.896 199.237 115.974 199.376 116.114C199.516 116.253 199.594 116.442 199.594 116.639V150.84C199.594 151.037 199.516 151.226 199.376 151.365C199.237 151.505 199.048 151.583 198.85 151.583Z" fill="#FFB660"/>
<path d="M204.056 154.182C203.859 154.182 203.67 154.104 203.53 153.964C203.391 153.825 203.312 153.636 203.312 153.439V114.034C203.312 113.837 203.391 113.647 203.53 113.508C203.67 113.369 203.859 113.29 204.056 113.29C204.253 113.29 204.442 113.369 204.582 113.508C204.721 113.647 204.799 113.837 204.799 114.034V153.439C204.799 153.636 204.721 153.825 204.582 153.964C204.442 154.104 204.253 154.182 204.056 154.182Z" fill="#FFB660"/>
<path d="M209.259 160.875C209.062 160.875 208.873 160.796 208.733 160.657C208.594 160.517 208.515 160.328 208.515 160.131V107.344C208.515 107.146 208.594 106.957 208.733 106.818C208.873 106.678 209.062 106.6 209.259 106.6C209.456 106.6 209.645 106.678 209.785 106.818C209.924 106.957 210.002 107.146 210.002 107.344V160.131C210.002 160.328 209.924 160.517 209.785 160.657C209.645 160.796 209.456 160.875 209.259 160.875Z" fill="#FFB660"/>
<path d="M214.466 182.814C214.269 182.814 214.08 182.736 213.94 182.596C213.801 182.457 213.722 182.268 213.722 182.071V85.4173C213.722 85.2201 213.801 85.031 213.94 84.8916C214.08 84.7521 214.269 84.6738 214.466 84.6738C214.663 84.6738 214.852 84.7521 214.992 84.8916C215.131 85.031 215.209 85.2201 215.209 85.4173V182.071C215.209 182.268 215.131 182.457 214.992 182.596C214.852 182.736 214.663 182.814 214.466 182.814Z" fill="#FFB660"/>
<path d="M219.669 160.875C219.471 160.875 219.282 160.796 219.143 160.657C219.003 160.517 218.925 160.328 218.925 160.131V107.344C218.925 107.146 219.003 106.957 219.143 106.818C219.282 106.678 219.471 106.6 219.669 106.6C219.866 106.6 220.055 106.678 220.194 106.818C220.334 106.957 220.412 107.146 220.412 107.344V160.131C220.412 160.328 220.334 160.517 220.194 160.657C220.055 160.796 219.866 160.875 219.669 160.875Z" fill="#FFB660"/>
<path d="M224.874 165.71C224.676 165.71 224.487 165.631 224.348 165.492C224.208 165.353 224.13 165.163 224.13 164.966V102.513C224.13 102.316 224.208 102.127 224.348 101.988C224.487 101.848 224.676 101.77 224.874 101.77C225.071 101.77 225.26 101.848 225.399 101.988C225.539 102.127 225.617 102.316 225.617 102.513V164.966C225.617 165.163 225.539 165.353 225.399 165.492C225.26 165.631 225.071 165.71 224.874 165.71Z" fill="#FFB660"/>
<path d="M230.078 153.078C229.881 153.078 229.692 152.999 229.552 152.86C229.413 152.721 229.334 152.532 229.334 152.334V115.16C229.334 114.963 229.413 114.774 229.552 114.634C229.692 114.495 229.881 114.416 230.078 114.416C230.275 114.416 230.464 114.495 230.604 114.634C230.743 114.774 230.821 114.963 230.821 115.16V152.334C230.821 152.532 230.743 152.721 230.604 152.86C230.464 152.999 230.275 153.078 230.078 153.078Z" fill="#FFB660"/>
<path d="M235.282 156.052C235.085 156.052 234.895 155.974 234.756 155.834C234.617 155.695 234.538 155.506 234.538 155.308V112.186C234.538 111.989 234.617 111.8 234.756 111.661C234.895 111.521 235.085 111.443 235.282 111.443C235.479 111.443 235.668 111.521 235.807 111.661C235.947 111.8 236.025 111.989 236.025 112.186V155.308C236.025 155.506 235.947 155.695 235.807 155.834C235.668 155.974 235.479 156.052 235.282 156.052Z" fill="#FFB660"/>
<path d="M240.486 147.497C240.289 147.497 240.1 147.418 239.961 147.279C239.821 147.14 239.743 146.95 239.743 146.753V120.731C239.743 120.534 239.821 120.345 239.961 120.205C240.1 120.066 240.289 119.988 240.486 119.988C240.684 119.988 240.873 120.066 241.012 120.205C241.152 120.345 241.23 120.534 241.23 120.731V146.753C241.23 146.95 241.152 147.14 241.012 147.279C240.873 147.418 240.684 147.497 240.486 147.497Z" fill="#FFB660"/>
<path d="M61.6507 129.147C60.9747 128.8 60.2553 128.505 59.4927 128.263C58.73 128.003 58.002 127.873 57.3087 127.873C56.3727 127.873 55.6273 128.081 55.0727 128.497C54.5353 128.913 54.2667 129.485 54.2667 130.213C54.2667 130.733 54.4573 131.192 54.8387 131.591C55.22 131.972 55.7053 132.31 56.2947 132.605C56.884 132.882 57.508 133.151 58.1667 133.411C58.7387 133.619 59.302 133.87 59.8567 134.165C60.4287 134.442 60.94 134.789 61.3907 135.205C61.8413 135.621 62.1967 136.141 62.4567 136.765C62.734 137.371 62.8727 138.125 62.8727 139.027C62.8727 140.015 62.6213 140.925 62.1187 141.757C61.616 142.571 60.8967 143.221 59.9607 143.707C59.0247 144.192 57.8807 144.435 56.5287 144.435C55.7487 144.435 54.9773 144.348 54.2147 144.175C53.4693 144.001 52.7587 143.767 52.0827 143.473C51.4067 143.161 50.7827 142.814 50.2107 142.433L51.5627 140.067C51.9787 140.379 52.4553 140.665 52.9927 140.925C53.53 141.185 54.0847 141.393 54.6567 141.549C55.2287 141.687 55.766 141.757 56.2687 141.757C56.806 141.757 57.3347 141.67 57.8547 141.497C58.392 141.323 58.834 141.037 59.1807 140.639C59.5447 140.24 59.7267 139.711 59.7267 139.053C59.7267 138.515 59.5707 138.056 59.2587 137.675C58.9467 137.293 58.5393 136.964 58.0367 136.687C57.5513 136.392 57.014 136.132 56.4247 135.907C55.8353 135.681 55.2287 135.43 54.6047 135.153C53.998 134.875 53.4347 134.537 52.9147 134.139C52.3947 133.723 51.97 133.22 51.6407 132.631C51.3113 132.041 51.1467 131.313 51.1467 130.447C51.1467 129.407 51.3893 128.505 51.8747 127.743C52.36 126.98 53.0273 126.373 53.8767 125.923C54.7433 125.472 55.74 125.229 56.8667 125.195C58.2013 125.195 59.3367 125.359 60.2727 125.689C61.226 126.001 62.0667 126.382 62.7947 126.833L61.6507 129.147ZM65.6815 134.789C65.6815 133.471 65.9328 132.232 66.4355 131.071C66.9381 129.909 67.6315 128.878 68.5155 127.977C69.3995 127.075 70.4221 126.373 71.5835 125.871C72.7621 125.351 74.0188 125.091 75.3535 125.091C76.6708 125.091 77.9101 125.351 79.0715 125.871C80.2501 126.373 81.2815 127.075 82.1655 127.977C83.0668 128.878 83.7688 129.909 84.2715 131.071C84.7915 132.232 85.0515 133.471 85.0515 134.789C85.0515 136.123 84.7915 137.371 84.2715 138.533C83.7688 139.694 83.0668 140.725 82.1655 141.627C81.2815 142.511 80.2501 143.204 79.0715 143.707C77.9101 144.192 76.6708 144.435 75.3535 144.435C74.0015 144.435 72.7448 144.192 71.5835 143.707C70.4221 143.204 69.3995 142.519 68.5155 141.653C67.6315 140.769 66.9381 139.746 66.4355 138.585C65.9328 137.406 65.6815 136.141 65.6815 134.789ZM68.8015 134.789C68.8015 135.725 68.9661 136.6 69.2955 137.415C69.6421 138.229 70.1188 138.949 70.7255 139.573C71.3321 140.179 72.0341 140.656 72.8315 141.003C73.6288 141.349 74.4955 141.523 75.4315 141.523C76.3328 141.523 77.1735 141.349 77.9535 141.003C78.7508 140.656 79.4441 140.179 80.0335 139.573C80.6228 138.949 81.0821 138.229 81.4115 137.415C81.7581 136.6 81.9315 135.725 81.9315 134.789C81.9315 133.835 81.7581 132.951 81.4115 132.137C81.0648 131.322 80.5968 130.603 80.0075 129.979C79.4181 129.355 78.7248 128.869 77.9275 128.523C77.1301 128.176 76.2721 128.003 75.3535 128.003C74.4348 128.003 73.5768 128.176 72.7795 128.523C71.9821 128.869 71.2801 129.355 70.6735 129.979C70.0841 130.603 69.6248 131.331 69.2955 132.163C68.9661 132.977 68.8015 133.853 68.8015 134.789ZM91.8237 137.415C91.8237 138.16 92.0143 138.845 92.3957 139.469C92.7943 140.075 93.3143 140.569 93.9557 140.951C94.597 141.315 95.3163 141.497 96.1137 141.497C96.9457 141.497 97.691 141.315 98.3497 140.951C99.0083 140.569 99.5283 140.075 99.9097 139.469C100.291 138.845 100.482 138.16 100.482 137.415V125.299H103.472V137.493C103.472 138.862 103.142 140.075 102.484 141.133C101.825 142.173 100.941 142.987 99.8317 143.577C98.7223 144.149 97.483 144.435 96.1137 144.435C94.7617 144.435 93.531 144.149 92.4217 143.577C91.3123 142.987 90.4283 142.173 89.7697 141.133C89.1283 140.075 88.8077 138.862 88.8077 137.493V125.299H91.8237V137.415ZM125.005 144.903L110.471 130.811L111.355 131.175L111.433 144.227H108.365V124.649H108.495L122.821 138.741L122.119 138.533L122.067 125.299H125.083V144.903H125.005ZM130.303 144.227V125.299H135.685C137.574 125.299 139.177 125.585 140.495 126.157C141.812 126.711 142.878 127.465 143.693 128.419C144.507 129.355 145.097 130.403 145.461 131.565C145.842 132.709 146.033 133.861 146.033 135.023C146.033 136.444 145.781 137.718 145.279 138.845C144.776 139.971 144.091 140.942 143.225 141.757C142.358 142.554 141.353 143.169 140.209 143.603C139.082 144.019 137.877 144.227 136.595 144.227H130.303ZM133.345 141.315H136.049C137.054 141.315 137.973 141.176 138.805 140.899C139.637 140.604 140.356 140.188 140.963 139.651C141.587 139.096 142.063 138.411 142.393 137.597C142.739 136.782 142.913 135.855 142.913 134.815C142.913 133.636 142.713 132.631 142.315 131.799C141.933 130.949 141.422 130.265 140.781 129.745C140.157 129.207 139.472 128.817 138.727 128.575C137.981 128.332 137.245 128.211 136.517 128.211H133.345V141.315ZM160.014 129.147C159.338 128.8 158.619 128.505 157.856 128.263C157.093 128.003 156.365 127.873 155.672 127.873C154.736 127.873 153.991 128.081 153.436 128.497C152.899 128.913 152.63 129.485 152.63 130.213C152.63 130.733 152.821 131.192 153.202 131.591C153.583 131.972 154.069 132.31 154.658 132.605C155.247 132.882 155.871 133.151 156.53 133.411C157.102 133.619 157.665 133.87 158.22 134.165C158.792 134.442 159.303 134.789 159.754 135.205C160.205 135.621 160.56 136.141 160.82 136.765C161.097 137.371 161.236 138.125 161.236 139.027C161.236 140.015 160.985 140.925 160.482 141.757C159.979 142.571 159.26 143.221 158.324 143.707C157.388 144.192 156.244 144.435 154.892 144.435C154.112 144.435 153.341 144.348 152.578 144.175C151.833 144.001 151.122 143.767 150.446 143.473C149.77 143.161 149.146 142.814 148.574 142.433L149.926 140.067C150.342 140.379 150.819 140.665 151.356 140.925C151.893 141.185 152.448 141.393 153.02 141.549C153.592 141.687 154.129 141.757 154.632 141.757C155.169 141.757 155.698 141.67 156.218 141.497C156.755 141.323 157.197 141.037 157.544 140.639C157.908 140.24 158.09 139.711 158.09 139.053C158.09 138.515 157.934 138.056 157.622 137.675C157.31 137.293 156.903 136.964 156.4 136.687C155.915 136.392 155.377 136.132 154.788 135.907C154.199 135.681 153.592 135.43 152.968 135.153C152.361 134.875 151.798 134.537 151.278 134.139C150.758 133.723 150.333 133.22 150.004 132.631C149.675 132.041 149.51 131.313 149.51 130.447C149.51 129.407 149.753 128.505 150.238 127.743C150.723 126.98 151.391 126.373 152.24 125.923C153.107 125.472 154.103 125.229 155.23 125.195C156.565 125.195 157.7 125.359 158.636 125.689C159.589 126.001 160.43 126.382 161.158 126.833L160.014 129.147ZM179.255 142.745C178.995 142.935 178.587 143.169 178.033 143.447C177.478 143.724 176.819 143.967 176.057 144.175C175.311 144.365 174.479 144.452 173.561 144.435C172.087 144.417 170.761 144.157 169.583 143.655C168.404 143.135 167.407 142.441 166.593 141.575C165.778 140.691 165.145 139.685 164.695 138.559C164.261 137.415 164.045 136.201 164.045 134.919C164.045 133.48 164.27 132.163 164.721 130.967C165.171 129.771 165.813 128.739 166.645 127.873C167.477 126.989 168.465 126.304 169.609 125.819C170.753 125.333 172.001 125.091 173.353 125.091C174.549 125.091 175.615 125.255 176.551 125.585C177.504 125.897 178.301 126.252 178.943 126.651L177.747 129.511C177.261 129.164 176.655 128.826 175.927 128.497C175.199 128.167 174.375 128.003 173.457 128.003C172.625 128.003 171.827 128.176 171.065 128.523C170.302 128.852 169.635 129.329 169.063 129.953C168.491 130.559 168.031 131.27 167.685 132.085C167.355 132.899 167.191 133.783 167.191 134.737C167.191 135.725 167.338 136.635 167.633 137.467C167.945 138.281 168.378 138.992 168.933 139.599C169.505 140.205 170.181 140.682 170.961 141.029C171.758 141.358 172.642 141.523 173.613 141.523C174.601 141.523 175.459 141.375 176.187 141.081C176.932 140.769 177.53 140.422 177.981 140.041L179.255 142.745ZM181.317 144.227L189.689 124.519H189.871L198.243 144.227H194.759L188.857 129.277L191.041 127.795L184.307 144.227H181.317ZM186.569 137.207H193.043L194.083 139.781H185.659L186.569 137.207ZM206.829 125.299C208.267 125.299 209.498 125.541 210.521 126.027C211.543 126.512 212.323 127.205 212.861 128.107C213.415 129.008 213.693 130.1 213.693 131.383C213.693 132.128 213.571 132.873 213.329 133.619C213.103 134.364 212.739 135.04 212.237 135.647C211.751 136.253 211.093 136.747 210.261 137.129C209.446 137.493 208.441 137.675 207.245 137.675H204.515V144.227H201.473V125.299H206.829ZM207.245 134.737C207.903 134.737 208.458 134.624 208.909 134.399C209.359 134.173 209.706 133.887 209.949 133.541C210.209 133.194 210.391 132.839 210.495 132.475C210.616 132.093 210.677 131.755 210.677 131.461C210.677 131.149 210.625 130.811 210.521 130.447C210.417 130.065 210.243 129.71 210.001 129.381C209.758 129.034 209.42 128.757 208.987 128.549C208.553 128.323 207.999 128.211 207.323 128.211H204.515V134.737H207.245ZM217.367 125.299H229.925V128.211H220.409V133.255H228.885V136.193H220.409V141.315H230.289V144.227H217.367V125.299Z" fill="#525252"/>
</svg>
